<!DOCTYPE svg PUBLIC "-//W3C//DTD SVG 1.1//EN" "http://www.w3.org/Graphics/SVG/1.1/DTD/svg11.dtd">
<!-- Uploaded to: SVG Repo, www.svgrepo.com, Transformed by: SVG Repo Mixer Tools -->
<svg fill="#FFFFFF" height="800px" width="800px" version="1.1" id="Layer_1" xmlns="http://www.w3.org/2000/svg" xmlns:xlink="http://www.w3.org/1999/xlink" viewBox="0 0 297.001 297.001" xml:space="preserve" stroke="#FFFFFF">
<g id="SVGRepo_bgCarrier" stroke-width="0"/>
<g id="SVGRepo_tracerCarrier" stroke-linecap="round" stroke-linejoin="round"/>
<g id="SVGRepo_iconCarrier"> <g> <g> <g> <path d="M113.714,0c-10.829,0-20.523,6.46-24.695,16.457c-1.709,4.096-6.417,6.034-10.512,4.321 c-5.384-2.246-11.094-3.385-16.972-3.385c-22.318,0-44.142,35.235-44.142,61.535c0,8.794,2.689,18.33,7.873,25.389 c8.13,11.07,22.445,18.135,37.178,17.363c4.432-0.232,8.215,3.173,8.447,7.606c0.232,4.433-3.173,8.215-7.606,8.447 c-16.94,0.888-32.624-5.361-44.157-16.096c-1.137,3-1.735,6.204-1.735,9.471c0,7.666,3.305,14.979,9.069,20.062 c1.73,1.526,2.721,3.721,2.721,6.028s-0.991,4.502-2.721,6.028c-5.764,5.083-9.069,12.395-9.069,20.062 c0,14.188,11.105,25.825,25.078,26.691c16.163-8.064,12.458-21.28,11.52-23.919c-1.572-4.151,0.532-8.753,4.683-10.325 c4.147-1.574,8.804,0.553,10.377,4.705c3.696,9.757,4.444,30.261-16.606,42.415c1.826,16.743,13.125,31.216,29.274,36.876 c3.456,1.212,5.657,4.607,5.35,8.258c-0.07,0.835-0.104,1.575-0.104,2.263c0,14.749,12,26.749,26.749,26.749 c14.749,0,26.749-12,26.749-26.749c0-6.569-2.41-12.889-6.784-17.794c-2.442-2.737-2.72-6.781-0.675-9.828 c4.88-7.272,7.459-15.763,7.459-24.557V26.749C140.464,12,128.464,0,113.714,0z M110.247,120.986 c-1.35,0.875-2.866,1.293-4.363,1.293c-2.633,0-5.214-1.293-6.753-3.667c-2.414-3.725-1.351-8.701,2.374-11.116 c16.779-10.873,14.017-26.299,13.891-26.951c-0.94-4.338,1.824-8.575,6.162-9.515c4.339-0.937,8.626,1.858,9.565,6.197 C131.357,78.309,136.563,103.931,110.247,120.986z"/> <path d="M270.538,151.17c5.764-5.085,9.069-12.397,9.069-20.063c0-3.267-0.598-6.471-1.735-9.471 c-11.533,10.735-27.217,16.984-44.157,16.096c-4.433-0.232-7.838-4.014-7.606-8.447c0.232-4.432,4.014-7.838,8.447-7.606 c14.733,0.773,29.048-6.292,37.178-17.362c5.184-7.059,7.873-16.595,7.873-25.389c0-26.299-21.824-61.535-44.142-61.535 c-5.878,0-11.588,1.139-16.972,3.385c-4.093,1.708-8.801-0.225-10.512-4.321C203.81,6.46,194.115,0,183.286,0 c-14.749,0-26.749,12-26.749,26.749v191.323c0,8.794,2.579,17.285,7.459,24.557c2.045,3.046,1.767,7.09-0.676,9.829 c-4.374,4.905-6.783,11.224-6.783,17.793c0,14.749,12,26.749,26.749,26.749c14.749,0,26.749-12,26.749-26.749 c0-0.689-0.034-1.428-0.104-2.263c-0.307-3.651,1.894-7.046,5.35-8.258c16.149-5.66,27.448-20.133,29.274-36.876 c-21.05-12.153-20.302-32.657-16.606-42.415c1.573-4.151,6.213-6.242,10.363-4.669c4.13,1.565,6.22,6.166,4.692,10.302 c-0.944,2.667-4.613,15.855,11.525,23.906c13.973-0.866,25.078-12.504,25.078-26.691c0-7.665-3.305-14.978-9.069-20.063 c-1.73-1.526-2.721-3.72-2.721-6.027S268.808,152.696,270.538,151.17z M197.87,118.612c-1.539,2.374-4.12,3.667-6.753,3.667 c-1.498,0-3.012-0.418-4.363-1.293c-26.317-17.055-21.111-42.677-20.877-43.759c0.94-4.339,5.222-7.094,9.556-6.153 c4.314,0.934,7.063,5.169,6.169,9.483c-0.152,0.805-2.795,16.124,13.893,26.939C199.221,109.91,200.284,114.886,197.87,118.612z"/> </g> </g> </g> </g>
</svg>